<?xml version="1.0" encoding="UTF-8"?>
<!DOCTYPE svg PUBLIC "-//W3C//DTD SVG 1.1//EN" "http://www.w3.org/Graphics/SVG/1.1/DTD/svg11.dtd">
<!-- Creator: CorelDRAW X7 -->
<svg xmlns="http://www.w3.org/2000/svg" xml:space="preserve" width="10.5832mm" height="10.5832mm" version="1.1" style="shape-rendering:geometricPrecision; text-rendering:geometricPrecision; image-rendering:optimizeQuality; fill-rule:evenodd; clip-rule:evenodd"
viewBox="0 0 10583 10583"
 xmlns:xlink="http://www.w3.org/1999/xlink">
 <defs>
  <style type="text/css">
   <![CDATA[
    .fil1 {fill:#494949}
    .fil0 {fill:#99CC33}
   ]]>
  </style>
 </defs>
 <g id="Capa_x0020_1">
  <metadata id="CorelCorpID_0Corel-Layer"/>
  <g id="_832357144992">
   <path class="fil0" d="M1091 5126c44,-1098 507,-2089 1234,-2816 726,-726 1717,-1190 2815,-1233l0 1430c-703,42 -1337,345 -1806,813 -468,469 -771,1102 -813,1806l-1430 0z"/>
   <path class="fil1" d="M7288 3320c-469,-468 -1102,-771 -1806,-813l0 -1430c1098,43 2089,507 2816,1233 764,765 1237,1821 1237,2987 0,1105 -425,2111 -1119,2863l-1011 -1011c436,-493 701,-1142 701,-1852 0,-772 -312,-1471 -818,-1977zm886 5082c-752,694 -1758,1119 -2863,1119 -1166,0 -2222,-473 -2986,-1237 -727,-727 -1190,-1718 -1234,-2816l1430 0c42,704 345,1337 813,1806 506,505 1205,818 1977,818 711,0 1359,-265 1852,-701l1011 1011z"/>
  </g>
 </g>
</svg>
