<?xml version="1.0" encoding="UTF-8" standalone="no"?>
<svg
   xmlns:dc="http://purl.org/dc/elements/1.1/"
   xmlns:cc="http://creativecommons.org/ns#"
   xmlns:rdf="http://www.w3.org/1999/02/22-rdf-syntax-ns#"
   xmlns:svg="http://www.w3.org/2000/svg"
   xmlns="http://www.w3.org/2000/svg"
   xmlns:xlink="http://www.w3.org/1999/xlink"
   xmlns:sodipodi="http://sodipodi.sourceforge.net/DTD/sodipodi-0.dtd"
   xmlns:inkscape="http://www.inkscape.org/namespaces/inkscape"
   id="Layer_1"
   data-name="Layer 1"
   width="504.59"
   height="480.9"
   viewBox="0 0 504.59 480.9"
   version="1.1"
   sodipodi:docname="data_center.svg"
   inkscape:version="0.92.2 (5c3e80d, 2017-08-06)">
  <metadata
     id="metadata1091">
    <rdf:RDF>
      <cc:Work
         rdf:about="">
        <dc:format>image/svg+xml</dc:format>
        <dc:type
           rdf:resource="http://purl.org/dc/dcmitype/StillImage" />
      </cc:Work>
    </rdf:RDF>
  </metadata>
  <sodipodi:namedview
     pagecolor="#ffffff"
     bordercolor="#666666"
     borderopacity="1"
     objecttolerance="10"
     gridtolerance="10"
     guidetolerance="10"
     inkscape:pageopacity="0"
     inkscape:pageshadow="2"
     inkscape:window-width="1920"
     inkscape:window-height="1017"
     id="namedview1089"
     showgrid="false"
     inkscape:zoom="1.2468841"
     inkscape:cx="305.88469"
     inkscape:cy="188.64979"
     inkscape:window-x="-8"
     inkscape:window-y="-8"
     inkscape:window-maximized="1"
     inkscape:current-layer="Layer_1" />
  <defs
     id="defs982">
    <linearGradient
       id="linear-gradient"
       x1="254.01"
       y1="304.13"
       x2="226.78"
       y2="268.19"
       gradientUnits="userSpaceOnUse">
      <stop
         offset="0"
         stop-opacity="0"
         id="stop954" />
      <stop
         offset="0.99"
         id="stop956" />
    </linearGradient>
    <linearGradient
       id="linear-gradient-2"
       x1="243.75"
       y1="329.23"
       x2="305.38"
       y2="335.59"
       xlink:href="#linear-gradient"
       gradientTransform="translate(-33.12,-0.87)" />
    <linearGradient
       id="linear-gradient-3"
       x1="121.74"
       y1="108.66"
       x2="461.85"
       y2="108.66"
       xlink:href="#linear-gradient"
       gradientTransform="translate(-33.12,-0.87)" />
    <linearGradient
       id="linear-gradient-4"
       x1="288.59"
       y1="-46.13"
       x2="314.02"
       y2="415.99"
       xlink:href="#linear-gradient"
       gradientTransform="translate(-33.12,-0.87)" />
    <linearGradient
       id="linear-gradient-5"
       x1="133.9"
       y1="403.66"
       x2="133.9"
       y2="440.51"
       gradientUnits="userSpaceOnUse">
      <stop
         offset="0"
         stop-opacity="0"
         id="stop962" />
      <stop
         offset="0.41"
         stop-opacity="0.41"
         id="stop964" />
      <stop
         offset="0.99"
         id="stop966" />
    </linearGradient>
    <linearGradient
       id="linear-gradient-6"
       x1="310.64"
       y1="392.64"
       x2="311.75"
       y2="413.1"
       xlink:href="#linear-gradient-5" />
    <linearGradient
       id="linear-gradient-7"
       x1="209.45"
       y1="234.78"
       x2="208.09"
       y2="196"
       xlink:href="#linear-gradient" />
    <linearGradient
       id="linear-gradient-8"
       x1="241.07"
       y1="323.5"
       x2="270.67"
       y2="323.5"
       gradientUnits="userSpaceOnUse">
      <stop
         offset="0"
         stop-color="#ecc4d7"
         id="stop971" />
      <stop
         offset="0.42"
         stop-color="#efd4d1"
         id="stop973" />
      <stop
         offset="1"
         stop-color="#f2eac9"
         id="stop975" />
    </linearGradient>
    <linearGradient
       id="linear-gradient-9"
       x1="268.52"
       y1="330.49"
       x2="253.32"
       y2="213.3"
       xlink:href="#linear-gradient"
       gradientTransform="translate(-33.12,-0.87)" />
    <linearGradient
       id="linear-gradient-10"
       x1="236.72"
       y1="274.73"
       x2="248.97"
       y2="274.73"
       xlink:href="#linear-gradient-8"
       gradientTransform="translate(-33.12,-0.87)" />
    <linearGradient
       id="linear-gradient-11"
       x1="255.75"
       y1="294.68"
       x2="262.36"
       y2="294.68"
       xlink:href="#linear-gradient-8"
       gradientTransform="translate(-33.12,-0.87)" />
    <linearGradient
       id="linear-gradient-12"
       x1="254.41"
       y1="283.76"
       x2="266.78"
       y2="283.76"
       xlink:href="#linear-gradient-8"
       gradientTransform="translate(-33.12,-0.87)" />
    <linearGradient
       inkscape:collect="always"
       xlink:href="#linear-gradient-8"
       id="linearGradient1097"
       gradientUnits="userSpaceOnUse"
       x1="241.07"
       y1="323.5"
       x2="270.67"
       y2="323.5"
       gradientTransform="translate(-33.12,-0.87)" />
    <linearGradient
       gradientUnits="userSpaceOnUse"
       gradientTransform="translate(-100.81 145.97) rotate(-18.42)"
       y2="-0.25"
       x2="213.62"
       y1="-0.25"
       x1="121.12"
       id="a">
      <stop
         id="stop1160"
         stop-color="#262262"
         offset="0" />
      <stop
         id="stop1162"
         stop-color="#662d91"
         offset="0.5" />
      <stop
         id="stop1164"
         stop-color="#642c8e"
         offset="0.67" />
      <stop
         id="stop1166"
         stop-color="#5c2a85"
         offset="0.8" />
      <stop
         id="stop1168"
         stop-color="#4e2675"
         offset="0.91" />
      <stop
         id="stop1170"
         stop-color="#3e2262"
         offset="1" />
    </linearGradient>
    <linearGradient
       gradientUnits="userSpaceOnUse"
       gradientTransform="translate(-100.81 145.97) rotate(-18.42)"
       y2="1.37"
       x2="197.87"
       y1="1.37"
       x1="121.12"
       id="b">
      <stop
         id="stop1173"
         stop-opacity="0"
         stop-color="#92278f"
         offset="0" />
      <stop
         id="stop1175"
         stop-opacity="0.16"
         stop-color="#942a8f"
         offset="0.05" />
      <stop
         id="stop1177"
         stop-opacity="0.38"
         stop-color="#982d90"
         offset="0.13" />
      <stop
         id="stop1179"
         stop-opacity="0.58"
         stop-color="#9b3090"
         offset="0.22" />
      <stop
         id="stop1181"
         stop-opacity="0.73"
         stop-color="#9d3390"
         offset="0.32" />
      <stop
         id="stop1183"
         stop-opacity="0.85"
         stop-color="#9f3591"
         offset="0.43" />
      <stop
         id="stop1185"
         stop-opacity="0.94"
         stop-color="#a03691"
         offset="0.55" />
      <stop
         id="stop1187"
         stop-opacity="0.99"
         stop-color="#a13791"
         offset="0.71" />
      <stop
         id="stop1189"
         stop-color="#a13791"
         offset="1" />
    </linearGradient>
    <linearGradient
       gradientUnits="userSpaceOnUse"
       gradientTransform="translate(-100.81 145.97) rotate(-18.42)"
       y2="-30.8"
       x2="236.08"
       y1="-30.8"
       x1="112.81"
       id="c">
      <stop
         id="stop1192"
         stop-color="#1c75bc"
         offset="0" />
      <stop
         id="stop1194"
         stop-color="#00aeef"
         offset="0.5" />
      <stop
         id="stop1196"
         stop-color="#4fd5df"
         offset="1" />
    </linearGradient>
    <linearGradient
       gradientUnits="userSpaceOnUse"
       gradientTransform="translate(-100.81 145.97) rotate(-18.42)"
       y2="46.48"
       x2="157.94"
       y1="95.69"
       x1="157.94"
       id="d">
      <stop
         id="stop1199"
         stop-color="#da1c5c"
         offset="0" />
      <stop
         id="stop1201"
         stop-color="#9e1f63"
         offset="0.5" />
      <stop
         id="stop1203"
         stop-color="#9e1f63"
         offset="1" />
    </linearGradient>
    <linearGradient
       gradientUnits="userSpaceOnUse"
       gradientTransform="translate(-100.81 145.97) rotate(-18.42)"
       y2="46.48"
       x2="158.19"
       y1="95.69"
       x1="158.19"
       id="e">
      <stop
         id="stop1206"
         stop-color="#da1c5c"
         offset="0" />
      <stop
         id="stop1208"
         stop-color="#351840"
         offset="1" />
    </linearGradient>
    <linearGradient
       gradientUnits="userSpaceOnUse"
       gradientTransform="translate(-100.81 145.97) rotate(-18.42)"
       y2="40.94"
       x2="224.92"
       y1="40.94"
       x1="138.12"
       id="f">
      <stop
         id="stop1211"
         stop-color="#ee2a7b"
         offset="0" />
      <stop
         id="stop1213"
         stop-color="#da1c5c"
         offset="0.5" />
      <stop
         id="stop1215"
         stop-color="#9e1f63"
         offset="1" />
    </linearGradient>
    <linearGradient
       gradientUnits="userSpaceOnUse"
       gradientTransform="translate(-100.81 145.97) rotate(-18.42)"
       y2="40.94"
       x2="225.04"
       y1="40.94"
       x1="138.12"
       id="g">
      <stop
         id="stop1218"
         stop-opacity="0"
         stop-color="#ee2a7b"
         offset="0" />
      <stop
         id="stop1220"
         stop-opacity="0.09"
         stop-color="#ee2b7b"
         offset="0.02" />
      <stop
         id="stop1222"
         stop-opacity="0.3"
         stop-color="#ef2d7a"
         offset="0.07" />
      <stop
         id="stop1224"
         stop-opacity="0.49"
         stop-color="#f02f79"
         offset="0.12" />
      <stop
         id="stop1226"
         stop-opacity="0.65"
         stop-color="#f13078"
         offset="0.18" />
      <stop
         id="stop1228"
         stop-opacity="0.77"
         stop-color="#f13278"
         offset="0.23" />
      <stop
         id="stop1230"
         stop-opacity="0.87"
         stop-color="#f13378"
         offset="0.29" />
      <stop
         id="stop1232"
         stop-opacity="0.94"
         stop-color="#f23377"
         offset="0.35" />
      <stop
         id="stop1234"
         stop-opacity="0.99"
         stop-color="#f23477"
         offset="0.42" />
      <stop
         id="stop1236"
         stop-color="#f23477"
         offset="0.5" />
      <stop
         id="stop1238"
         stop-opacity="0.98"
         stop-color="#f13477"
         offset="0.56" />
      <stop
         id="stop1240"
         stop-opacity="0.93"
         stop-color="#ec3376"
         offset="0.63" />
      <stop
         id="stop1242"
         stop-opacity="0.84"
         stop-color="#e53174"
         offset="0.69" />
      <stop
         id="stop1244"
         stop-opacity="0.72"
         stop-color="#db2e71"
         offset="0.76" />
      <stop
         id="stop1246"
         stop-opacity="0.57"
         stop-color="#ce2b6e"
         offset="0.82" />
      <stop
         id="stop1248"
         stop-opacity="0.37"
         stop-color="#bd276a"
         offset="0.89" />
      <stop
         id="stop1250"
         stop-opacity="0.15"
         stop-color="#ab2266"
         offset="0.96" />
      <stop
         id="stop1252"
         stop-opacity="0"
         stop-color="#9e1f63"
         offset="1" />
    </linearGradient>
    <linearGradient
       gradientUnits="userSpaceOnUse"
       gradientTransform="translate(-100.81 145.97) rotate(-18.42)"
       y2="-30.8"
       x2="234.56"
       y1="-30.8"
       x1="112.81"
       id="h">
      <stop
         id="stop1255"
         stop-color="#d9e8bc"
         offset="0" />
      <stop
         id="stop1257"
         stop-color="#4fd5df"
         offset="1" />
    </linearGradient>
    <linearGradient
       gradientUnits="userSpaceOnUse"
       gradientTransform="translate(-100.81 145.97) rotate(-18.42)"
       y2="-89.81"
       x2="210.19"
       y1="22.17"
       x1="145.54"
       id="i">
      <stop
         id="stop1260"
         stop-opacity="0"
         stop-color="#1c75bc"
         offset="0" />
      <stop
         id="stop1262"
         stop-opacity="0.18"
         stop-color="#458ec5"
         offset="0.06" />
      <stop
         id="stop1264"
         stop-opacity="0.43"
         stop-color="#7db0d2"
         offset="0.15" />
      <stop
         id="stop1266"
         stop-opacity="0.63"
         stop-color="#abccdc"
         offset="0.24" />
      <stop
         id="stop1268"
         stop-opacity="0.79"
         stop-color="#d0e2e4"
         offset="0.32" />
      <stop
         id="stop1270"
         stop-opacity="0.91"
         stop-color="#eaf2ea"
         offset="0.39" />
      <stop
         id="stop1272"
         stop-opacity="0.98"
         stop-color="#f9fcee"
         offset="0.45" />
      <stop
         id="stop1274"
         stop-color="#ffffef"
         offset="0.5" />
      <stop
         id="stop1276"
         stop-opacity="0.99"
         stop-color="#fdffef"
         offset="0.59" />
      <stop
         id="stop1278"
         stop-opacity="0.95"
         stop-color="#f6fdee"
         offset="0.66" />
      <stop
         id="stop1280"
         stop-opacity="0.89"
         stop-color="#ecfaed"
         offset="0.72" />
      <stop
         id="stop1282"
         stop-opacity="0.8"
         stop-color="#dcf7ec"
         offset="0.77" />
      <stop
         id="stop1284"
         stop-opacity="0.69"
         stop-color="#c8f2ea"
         offset="0.82" />
      <stop
         id="stop1286"
         stop-opacity="0.55"
         stop-color="#afece8"
         offset="0.87" />
      <stop
         id="stop1288"
         stop-opacity="0.38"
         stop-color="#92e5e5"
         offset="0.92" />
      <stop
         id="stop1290"
         stop-opacity="0.19"
         stop-color="#71dde2"
         offset="0.96" />
      <stop
         id="stop1292"
         stop-opacity="0"
         stop-color="#4fd5df"
         offset="1" />
    </linearGradient>
    <linearGradient
       gradientUnits="userSpaceOnUse"
       gradientTransform="translate(-100.81 145.97) rotate(-18.42)"
       y2="40.94"
       x2="220.49"
       y1="40.94"
       x1="138.12"
       id="j">
      <stop
         id="stop1295"
         stop-opacity="0"
         stop-color="#ee2a7b"
         offset="0" />
      <stop
         id="stop1297"
         stop-opacity="0.34"
         stop-color="#d32673"
         offset="0.25" />
      <stop
         id="stop1299"
         stop-opacity="0.62"
         stop-color="#bc236c"
         offset="0.49" />
      <stop
         id="stop1301"
         stop-opacity="0.83"
         stop-color="#ac2167"
         offset="0.7" />
      <stop
         id="stop1303"
         stop-opacity="0.95"
         stop-color="#a21f64"
         offset="0.88" />
      <stop
         id="stop1305"
         stop-color="#9e1f63"
         offset="1" />
    </linearGradient>
    <linearGradient
       gradientUnits="userSpaceOnUse"
       gradientTransform="translate(-100.81 145.97) rotate(-18.42)"
       y2="40.94"
       x2="225.04"
       y1="40.94"
       x1="141.43"
       id="k">
      <stop
         id="stop1308"
         stop-opacity="0"
         stop-color="#ee2a7b"
         offset="0" />
      <stop
         id="stop1310"
         stop-opacity="0.14"
         stop-color="#f0478d"
         offset="0.03" />
      <stop
         id="stop1312"
         stop-opacity="0.34"
         stop-color="#f472a8"
         offset="0.08" />
      <stop
         id="stop1314"
         stop-opacity="0.51"
         stop-color="#f798bf"
         offset="0.13" />
      <stop
         id="stop1316"
         stop-opacity="0.66"
         stop-color="#f9b8d3"
         offset="0.18" />
      <stop
         id="stop1318"
         stop-opacity="0.79"
         stop-color="#fbd1e3"
         offset="0.24" />
      <stop
         id="stop1320"
         stop-opacity="0.88"
         stop-color="#fde6ef"
         offset="0.3" />
      <stop
         id="stop1322"
         stop-opacity="0.95"
         stop-color="#fef4f8"
         offset="0.36" />
      <stop
         id="stop1324"
         stop-opacity="0.99"
         stop-color="#fffcfd"
         offset="0.42" />
      <stop
         id="stop1326"
         stop-color="#fff"
         offset="0.5" />
      <stop
         id="stop1328"
         stop-opacity="0.98"
         stop-color="#fdfbfc"
         offset="0.56" />
      <stop
         id="stop1330"
         stop-opacity="0.93"
         stop-color="#f9f0f5"
         offset="0.62" />
      <stop
         id="stop1332"
         stop-opacity="0.85"
         stop-color="#f1dee8"
         offset="0.69" />
      <stop
         id="stop1334"
         stop-opacity="0.74"
         stop-color="#e5c4d6"
         offset="0.75" />
      <stop
         id="stop1336"
         stop-opacity="0.59"
         stop-color="#d7a3bf"
         offset="0.82" />
      <stop
         id="stop1338"
         stop-opacity="0.41"
         stop-color="#c57aa2"
         offset="0.88" />
      <stop
         id="stop1340"
         stop-opacity="0.2"
         stop-color="#b14b82"
         offset="0.95" />
      <stop
         id="stop1342"
         stop-opacity="0"
         stop-color="#9e1f63"
         offset="1" />
    </linearGradient>
    <style
       id="style2591"
       type="text/css"><![CDATA[
    .fil1 {fill:#494949}
    .fil0 {fill:#99CC33}
   ]]></style>
  </defs>
  <path
     inkscape:connector-curvature="0"
     id="path984"
     style="opacity:0.18000004;isolation:isolate;fill:#5c77ff"
     d="m 23.39,141.37 c -49.12,122.23 -6.28,194 -2.17,212.61 6.22,28.25 45.75,154.83 193.74,121.32 30.59,-6.93 76.47,-29.23 107.76,-31.41 26.43,-1.85 52.42,6.33 78.75,9.27 26.33,2.94 56.17,-0.89 73.3,-21.09 15.05,-17.76 16.24,-43.44 12.86,-66.48 -3.38,-23.04 -10.56,-45.77 -9.51,-69 1,-21.16 8.69,-41.33 14.36,-61.74 8.46,-30.45 12.41,-62.88 5.28,-93.66 -7.13,-30.78 -26.57,-59.75 -55.27,-73 -55.61,-25.66 -124.61,13.05 -181.2,-10.51 -31,-12.9 -191.74,-31.2 -237.9,83.69 z" />
  <path
     style="fill:#3f3d56"
     inkscape:connector-curvature="0"
     id="path986"
     d="m 234.1,270.83 a 3.85,3.85 0 0 0 -0.66,-2.3 1.75,1.75 0 0 0 -2.16,-0.54 c -0.39,0.23 -0.65,0.66 -1.06,0.87 -0.41,0.21 -1.09,-0.08 -0.95,-0.52 -1.87,0.29 -3.18,1.92 -4.78,2.92 -1.27,0.78 -2.75,1.18 -4,1.94 -1.25,0.76 -2.42,2.11 -2.26,3.59 a 5.34,5.34 0 0 1 0.16,1.42 4.83,4.83 0 0 1 -0.38,0.95 4.27,4.27 0 0 0 0.37,3.32 c 0.5,1 1.19,2 1.6,3 a 23.68,23.68 0 0 0 1.1,3.2 c 0.56,1 1.79,1.74 2.81,1.25 -0.85,-1.3 -0.32,-3 0.29,-4.47 1,-2.3 2.15,-4.68 4.28,-6 a 8.15,8.15 0 0 0 2.32,-1.62 19.57,19.57 0 0 0 1.16,-1.92 c 1.11,-1.68 2.2,-2.85 2.16,-5.09 z" />
  <path
     style="fill:#5c77ff"
     inkscape:connector-curvature="0"
     id="path988"
     d="m 214.93,286.26 a 3.63,3.63 0 0 0 -1,-1 c -1.23,-0.71 -2.74,0.22 -3.82,1.14 a 52.16,52.16 0 0 0 -4.22,4.06 3.59,3.59 0 0 0 -1.01,1.67 3.4,3.4 0 0 0 0.29,1.8 25.47,25.47 0 0 0 7.06,10.24 3.28,3.28 0 0 0 1.75,0.94 3.4,3.4 0 0 0 1.84,-0.54 l 7.83,-4 c 1.42,-0.73 3.11,-1.83 2.49,-3.7 -0.41,-1.21 -1.7,-1.62 -2.67,-2.31 a 41.64,41.64 0 0 1 -8.54,-8.3 z" />
  <path
     inkscape:connector-curvature="0"
     style="fill:#d40000"
     id="path990"
     d="m 214.93,286.35 a 3.6,3.6 0 0 0 -1,-1 c -1.23,-0.71 -2.74,0.21 -3.82,1.13 a 52.16,52.16 0 0 0 -4.23,4.05 3.63,3.63 0 0 0 -1.05,1.7 3.45,3.45 0 0 0 0.29,1.81 25.51,25.51 0 0 0 7.06,10.23 3.3,3.3 0 0 0 1.75,0.95 3.5,3.5 0 0 0 1.84,-0.55 l 7.83,-4 c 1.42,-0.73 3.11,-1.83 2.49,-3.7 -0.41,-1.2 -1.7,-1.61 -2.67,-2.31 a 41.39,41.39 0 0 1 -8.49,-8.31 z" />
  <path
     style="fill:#5c77ff"
     inkscape:connector-curvature="0"
     id="path992"
     d="m 233.49,305.24 c 0.95,3.95 0.66,8.07 0.36,12.12 -0.89,12.3 -1.81,24.74 -5.66,36.45 -1,3.11 -2.38,6.32 -5,8.22 -4.33,3.09 -10.84,1.39 -14.27,-2.67 -3.43,-4.06 -4.27,-9.76 -3.82,-15.06 0.45,-5.3 2,-10.43 2.93,-15.67 1.49,-8.82 0,-22.68 6.07,-30 6.48,-7.88 17.39,-1.79 19.39,6.61 z" />
  <path
     inkscape:connector-curvature="0"
     style="fill:#ff0000"
     id="path994"
     d="m 233.49,305.24 c 0.95,3.95 0.66,8.07 0.36,12.12 -0.89,12.3 -1.81,24.74 -5.66,36.45 -1,3.11 -2.38,6.32 -5,8.22 -4.33,3.09 -10.84,1.39 -14.27,-2.67 -3.43,-4.06 -4.27,-9.76 -3.82,-15.06 0.45,-5.3 2,-10.43 2.93,-15.67 1.49,-8.82 0,-22.68 6.07,-30 6.48,-7.88 17.39,-1.79 19.39,6.61 z" />
  <path
     style="fill:#3f3d56"
     inkscape:connector-curvature="0"
     id="path996"
     d="m 227.43,355.85 a 35.06,35.06 0 0 0 -0.48,3.5 99.15,99.15 0 0 1 -7.49,21.7 c -1.55,3.24 -3.3,6.43 -4.24,9.9 -1.31,4.79 -1,9.88 -0.37,14.81 0.87,6.79 2.77,11.39 4.22,18.08 -1.18,0.82 -11.41,7.15 -12.85,7.33 -2.9,-1.94 5,-7.84 4.91,-8.85 -0.42,-5.18 -1,-6.47 -2.55,-10.93 -1.3,-3.85 -2.62,-7.7 -3.7,-11.61 a 38.38,38.38 0 0 1 -1.77,-11.91 46,46 0 0 1 1.39,-8.22 l 3.21,-13.92 -13,10 a 5.18,5.18 0 0 0 -1.51,1.55 5,5 0 0 0 -0.3,2.91 82.91,82.91 0 0 0 6.27,24.14 l -7.29,7.32 a 11.46,11.46 0 0 1 -4.47,3.17 c -1.2,-1.16 -0.63,-3.21 0.32,-4.58 0.95,-1.37 3.88,-3.39 4,-5.05 0.06,-0.73 -2.72,-4.83 -2.9,-5.53 -2.1,-8.44 -3.35,-12.77 -4.26,-21.42 a 22.66,22.66 0 0 1 0,-6.21 c 0.85,-4.71 4.23,-8.51 7.48,-12 4.9,-5.33 8.63,-9.6 12.8,-14.43 2,2.45 4.58,6.88 14.1,9.33 3.78,0.93 6.21,0.4 8.48,0.92 z" />
  <path
     inkscape:connector-curvature="0"
     style="fill:url(#linear-gradient-3)"
     id="path998"
     d="m 428.73,161.4 a 44.25,44.25 0 0 1 -44.23,44.23 h -91.48 a 40.53,40.53 0 0 1 -6,-0.43 59.6,59.6 0 0 1 -7.23,0.43 H 150.95 a 62.33,62.33 0 1 1 0,-124.65 h 25.38 a 81.3,81.3 0 0 1 160.33,-5.85 h 7.88 a 40.85,40.85 0 0 1 40.86,40.84 c 0,0.41 0,0.82 0,1.21 a 44.21,44.21 0 0 1 43.33,44.22 z" />
  <path
     style="fill:#808080"
     inkscape:connector-curvature="0"
     id="path1000"
     d="m 418.78,151.45 a 44.25,44.25 0 0 1 -44.23,44.23 h -91.47 a 40.67,40.67 0 0 1 -6,-0.43 59.56,59.56 0 0 1 -7.22,0.43 H 141 a 62.33,62.33 0 1 1 0,-124.65 h 25.38 a 81.29,81.29 0 0 1 160.33,-5.85 h 7.88 a 40.85,40.85 0 0 1 40.86,40.83 c 0,0.42 0,0.83 0,1.22 a 44.22,44.22 0 0 1 43.33,44.22 z" />
  <path
     inkscape:connector-curvature="0"
     style="fill:#4d4d4d"
     id="path1002"
     d="m 418.78,151.45 a 44.25,44.25 0 0 1 -44.23,44.23 h -91.47 a 40.67,40.67 0 0 1 -6,-0.43 59.56,59.56 0 0 1 -7.22,0.43 H 144.73 A 62.33,62.33 0 0 1 175.82,79.32 h 25.39 A 81.31,81.31 0 0 1 281.88,8.29 h 1 a 81.39,81.39 0 0 1 43.86,56.88 h 7.88 A 40.85,40.85 0 0 1 375.48,106 c 0,0.42 0,0.83 0,1.22 a 44.22,44.22 0 0 1 43.3,44.23 z" />
  <path
     style="fill:#4d4d4d"
     inkscape:connector-curvature="0"
     id="path1004"
     d="m 65.09,364.83 h -4.91 v -190.2 a 17.91,17.91 0 0 1 17.89,-17.88 h 31 v 4.91 h -31 a 13,13 0 0 0 -13,13 z" />
  <path
     style="fill:#4d4d4d"
     inkscape:connector-curvature="0"
     id="path1006"
     d="m 467.51,364.83 h -4.9 v -190.2 a 13,13 0 0 0 -13,-13 h -31 v -4.91 h 31 a 17.9,17.9 0 0 1 17.88,17.88 z" />
  <rect
     style="fill:#666666"
     id="rect1008"
     rx="19.41"
     height="137.09"
     width="85.129997"
     y="274.17999"
     x="419.45999" />
  <path
     style="fill:#ffffff"
     inkscape:connector-curvature="0"
     id="path1010"
     d="m 498.76,293.37 v 86.62 a 12.46,12.46 0 0 1 -12.46,12.46 h -48.85 a 12.46,12.46 0 0 1 -12.47,-12.46 v -86.62 a 12.48,12.48 0 0 1 12.47,-12.48 h 48.85 a 12.47,12.47 0 0 1 12.46,12.48 z" />
  <rect
     style="fill:#ffffff"
     id="rect1012"
     rx="4.1500001"
     height="8.29"
     width="28.01"
     y="398.19"
     x="449.03" />
  <rect
     style="fill:#666666"
     id="rect1014"
     rx="13.45"
     height="96.18"
     width="167.49001"
     y="311.22"
     x="17.040001" />
  <rect
     style="fill:#ffffff"
     id="rect1016"
     rx="12.31"
     height="86.220001"
     width="156.58"
     y="315.92999"
     x="22.690001" />
  <path
     style="fill:#666666"
     inkscape:connector-curvature="0"
     id="path1018"
     d="m 184.52,413.72 a 6.3,6.3 0 0 1 -6.32,6.32 H 23.36 a 6.32,6.32 0 1 1 0,-12.64 H 178.2 a 6.34,6.34 0 0 1 6.32,6.32 z" />
  <path
     inkscape:connector-curvature="0"
     style="fill:#333333"
     id="path1020"
     d="m 183.33,410.04 a 5.38,5.38 0 0 1 -0.65,0.78 6.31,6.31 0 0 1 -4.48,1.86 H 23.36 a 6.31,6.31 0 0 1 -5.14,-2.64 6.22,6.22 0 0 1 5.14,-2.64 H 178.2 a 6.28,6.28 0 0 1 5.13,2.64 z" />
  <path
     style="fill:#4d4d4d"
     inkscape:connector-curvature="0"
     id="path1022"
     d="m 367.59,344.07 h -80.16 c -1.35,0 -3.4,-1.1 -3.4,-2.45 0,-1.35 2.05,-2.46 3.4,-2.46 h 80.16 a 17.64,17.64 0 0 0 17.63,-17.62 v -72.68 a 12.59,12.59 0 0 0 -12.58,-12.58 h -56.5 a 15.52,15.52 0 0 1 -15.5,-15.5 v -18.46 a 2.46,2.46 0 1 1 4.91,0 v 18.46 a 10.6,10.6 0 0 0 10.59,10.59 h 56.5 a 17.51,17.51 0 0 1 17.49,17.49 v 72.68 a 22.56,22.56 0 0 1 -22.54,22.53 z" />
  <rect
     id="rect1024"
     style="opacity:0.18000004;isolation:isolate;fill:#5c77ff"
     rx="3.3199999"
     height="6.6300001"
     width="54.169998"
     y="310.29999"
     x="435.76999" />
  <rect
     id="rect1026"
     style="opacity:0.18000004;isolation:isolate;fill:#5c77ff"
     rx="3.3199999"
     height="6.6300001"
     width="54.169998"
     y="323.38"
     x="435.76999" />
  <rect
     id="rect1028"
     style="opacity:0.18000004;isolation:isolate;fill:#5c77ff"
     rx="3.3199999"
     height="6.6300001"
     width="54.169998"
     y="336.45999"
     x="435.76999" />
  <rect
     id="rect1030"
     style="opacity:0.18000004;isolation:isolate;fill:#5c77ff"
     rx="3.3199999"
     height="6.6300001"
     width="54.169998"
     y="349.54001"
     x="435.76999" />
  <rect
     id="rect1032"
     style="opacity:0.18000004;isolation:isolate;fill:#5c77ff"
     rx="3.3199999"
     height="6.6300001"
     width="54.169998"
     y="336"
     x="41.91" />
  <rect
     id="rect1034"
     style="opacity:0.18000004;isolation:isolate;fill:#5c77ff"
     rx="3.3199999"
     height="6.6300001"
     width="54.169998"
     y="349.07999"
     x="41.91" />
  <rect
     id="rect1036"
     style="opacity:0.18000004;isolation:isolate;fill:#5c77ff"
     rx="3.3199999"
     height="6.6300001"
     width="54.169998"
     y="362.17001"
     x="41.91" />
  <rect
     id="rect1038"
     style="opacity:0.18000004;isolation:isolate;fill:#5c77ff"
     rx="3.3199999"
     height="6.6300001"
     width="54.169998"
     y="375.25"
     x="41.91" />
  <path
     inkscape:connector-curvature="0"
     id="path1040"
     style="opacity:0.18000004;isolation:isolate;fill:#5c77ff"
     d="M 174.46,318.49 22.69,372.58 v -44.33 a 12.32,12.32 0 0 1 12.32,-12.32 h 131.94 a 12.21,12.21 0 0 1 7.51,2.56 z" />
  <path
     inkscape:connector-curvature="0"
     id="path1042"
     style="opacity:0.18000004;isolation:isolate;fill:#5c77ff"
     d="m 179.27,365.19 v 24.64 a 12.31,12.31 0 0 1 -12.32,12.3 H 87.07 Z" />
  <rect
     x="256.29999"
     y="275.29001"
     width="107.24"
     height="127.14"
     rx="10.91"
     id="rect1044"
     style="fill:#666666" />
  <path
     d="m 358.51,289.86 v 95.27 a 9.85,9.85 0 0 1 -9.86,9.86 h -77.24 a 9.86,9.86 0 0 1 -9.87,-9.86 v -95.27 a 9.87,9.87 0 0 1 9.87,-9.86 h 77.24 a 9.86,9.86 0 0 1 9.86,9.86 z"
     id="path1046"
     inkscape:connector-curvature="0"
     style="fill:#ffffff" />
  <polygon
     points="340.32,334.62 340.32,351.43 275.4,351.43 274.72,325.04 288.73,318.77 305.68,333.14 323,310.3 "
     style="opacity:0.18000004;isolation:isolate;fill:#5c77ff"
     id="polygon1048" />
  <rect
     x="305.35999"
     y="396.81"
     width="11.2"
     height="3.3099999"
     rx="1.66"
     id="rect1050"
     style="fill:url(#linear-gradient-6)" />
  <polygon
     points="275.4,351.08 345.66,351.08 345.66,352.06 274.42,352.06 274.42,304.77 275.4,304.77 "
     id="polygon1052"
     style="fill:#666666" />
  <rect
     x="285.45999"
     y="316.47"
     width="5.6700001"
     height="34.959999"
     id="rect1054"
     style="fill:#666666" />
  <rect
     x="320.82999"
     y="307.89001"
     width="5.6700001"
     height="43.549999"
     id="rect1056"
     style="fill:#666666" />
  <rect
     x="302.87"
     y="330.20001"
     width="5.6700001"
     height="21.23"
     id="rect1058"
     style="fill:#666666" />
  <rect
     x="336.76999"
     y="330.20001"
     width="5.6700001"
     height="21.23"
     id="rect1060"
     style="fill:#666666" />
  <path
     d="m 358.51,289.86 v 8.67 l -97,52.89 v -61.56 a 9.87,9.87 0 0 1 9.87,-9.86 h 77.24 a 9.86,9.86 0 0 1 9.89,9.86 z"
     style="opacity:0.18000004;isolation:isolate;fill:#5c77ff"
     id="path1062"
     inkscape:connector-curvature="0" />
  <path
     inkscape:connector-curvature="0"
     id="path1066"
     style="opacity:0.18000004;isolation:isolate;fill:#5c77ff"
     d="m 498.76,328.77 v 51.22 a 12.46,12.46 0 0 1 -12.46,12.46 h -48.85 a 12.46,12.46 0 0 1 -12.47,-12.46 v -10.86 l 73.75,-45.25 z" />
  <polygon
     style="fill:#5c77ff"
     id="polygon1068"
     points="211.03,195.48 214.96,195.48 214.96,475.3 211.03,476.11 " />
  <polygon
     style="fill:#4d4d4d"
     id="polygon1070"
     points="211.03,195.48 214.96,195.48 214.96,475.3 211.03,476.11 " />
  <path
     inkscape:connector-curvature="0"
     style="fill:url(#linearGradient1097)"
     id="path1072"
     d="m 211.88,307.38 a 2.75,2.75 0 0 0 -1.93,-1 c -1.14,0.08 -1.71,1.42 -1.87,2.56 a 12.48,12.48 0 0 0 0,3.81 c 0.59,3.61 2.69,6.77 4.75,9.81 a 111.46,111.46 0 0 0 8.61,11.57 15.64,15.64 0 0 0 4.91,4 6.49,6.49 0 0 0 6.13,-0.12 c 2.24,-1.44 2.92,-4.35 3.42,-7 l 1.5,-8.05 a 3.55,3.55 0 0 0 0,-2.14 3.36,3.36 0 0 0 -1.24,-1.27 4.88,4.88 0 0 0 -2.14,-1 c -2.15,-0.23 -3.71,2 -4.26,4.11 -0.55,2.11 -0.73,4.44 -2.24,6 l -8.64,-10.01 a 5.78,5.78 0 0 1 -1.76,-3.36 16.67,16.67 0 0 1 0.52,-2.77 c 0.13,-0.93 -0.21,-2.08 -1.12,-2.31 a 3.07,3.07 0 0 1 -0.87,1.24 c -1.35,-1.13 -2.44,-2.81 -3.77,-4.07 z" />
  <path
     style="fill:#5c77ff"
     inkscape:connector-curvature="0"
     id="path1074"
     d="m 228.88,308.89 -0.95,12.7 a 1.91,1.91 0 0 0 1.24,2.32 l 8.43,4.78 c 2.17,-3.51 2.35,-7.86 2.3,-12 a 42.75,42.75 0 0 0 -0.84,-9 13.24,13.24 0 0 0 -1.54,-4 9.26,9.26 0 0 0 -3.1,-3.06 c -0.87,-0.52 -6,-4 -6.88,-3.26 -1,0.9 2.19,5.38 1.92,6.66 a 37.24,37.24 0 0 0 -0.58,4.86 z" />
  <path
     inkscape:connector-curvature="0"
     style="fill:#d40000"
     id="path1076"
     d="m 228.88,308.89 -0.95,12.7 a 1.91,1.91 0 0 0 1.24,2.32 l 8.43,4.78 c 2.17,-3.51 2.35,-7.86 2.3,-12 a 42.75,42.75 0 0 0 -0.84,-9 13.24,13.24 0 0 0 -1.54,-4 9.26,9.26 0 0 0 -3.1,-3.06 c -0.87,-0.52 -6,-4 -6.88,-3.26 -1,0.9 2.19,5.38 1.92,6.66 a 37.24,37.24 0 0 0 -0.58,4.86 z" />
  <path
     inkscape:connector-curvature="0"
     style="fill:url(#linear-gradient-10)"
     id="path1078"
     d="m 215.88,264.76 a 8.81,8.81 0 0 1 -2.18,5.65 21.45,21.45 0 0 0 -2.32,2.25 c -1.2,1.63 -1.07,3.84 -0.9,5.86 0.22,2.61 0.45,5.22 0.67,7.84 a 27,27 0 0 0 -4,2.74 41.24,41.24 0 0 1 -2.27,-5.12 13.32,13.32 0 0 1 -1.22,-3.92 11,11 0 0 1 0.13,-2.56 28.75,28.75 0 0 1 6.41,-14.15 0.87,0.87 0 0 1 -0.19,-0.46 10.53,10.53 0 0 1 0.17,-3.67 0.69,0.69 0 0 1 0.37,-0.57 c 0.26,-0.09 0.52,0.15 0.66,0.39 a 5.82,5.82 0 0 1 0.74,2.39 28,28 0 0 1 3.27,-2.79 26.91,26.91 0 0 1 0.66,6.12 z" />
  <path
     inkscape:connector-curvature="0"
     style="fill:url(#linear-gradient-11)"
     id="path1080"
     d="m 223.05,298.7 a 2.22,2.22 0 0 0 2.64,0.61 9.51,9.51 0 0 0 2.7,-1.69 1.73,1.73 0 0 0 0.49,-0.49 1.68,1.68 0 0 0 0.15,-0.67 c 0.1,-1.3 0.17,-2.61 0.2,-3.92 0.03,-1.31 -0.05,-3.12 -1.16,-4.07 a 1.05,1.05 0 0 0 -0.49,-0.28 1.6,1.6 0 0 0 -0.65,0.06 6.53,6.53 0 0 0 -2.41,1 c -1.36,1 -1.68,3 -1.74,4.57 -0.05,1.31 -0.43,3.7 0.27,4.88 z" />
  <path
     inkscape:connector-curvature="0"
     style="fill:url(#linear-gradient-12)"
     id="path1082"
     d="m 233.63,280.13 c 0,0 0.28,7.74 -0.92,10.22 -1.2,2.48 -6.27,2.49 -8.2,0.46 -1.93,-2.03 -4,-7.73 -2.95,-12.62 1.05,-4.89 10.32,-8.43 12.07,1.94 z" />
  <path
     style="fill:#3f3d56"
     inkscape:connector-curvature="0"
     id="path1084"
     d="m 227.22,274.77 a 5.71,5.71 0 0 0 -2.61,3.52 16.75,16.75 0 0 0 -0.49,4.47 l -0.05,2.28 a 4.77,4.77 0 0 0 -1.95,-1.58 4.38,4.38 0 0 0 0.28,3.33 3.74,3.74 0 0 1 0.47,1 0.87,0.87 0 0 1 -0.37,1 c -0.55,0.26 -1.08,-0.39 -1.35,-0.94 -1.07,-2.19 -2.18,-4.57 -1.74,-7 a 10.08,10.08 0 0 1 0.91,-2.53 12.64,12.64 0 0 1 4.21,-5.4 6,6 0 0 1 5.2,-0.7 c 2.97,1.13 -1.56,2.04 -2.51,2.55 z" />
  <g
     id="g11134"
     style="fill:#cccccc"
     transform="matrix(0.54295982,0,0,0.57895385,-131.91646,206.57303)">
    <g
       id="g11183"
       transform="translate(5.90835,-23.515062)">
      <path
         id="path10619"
         d="m 570.77948,-86.01544 1.3,-1.5 c 1.9,1.7 3.8,2.5 6.3,2.5 2.5,0 4.1,-1.3 4.1,-3 v -0.1 c 0,-1.6 -0.9,-2.6 -4.8,-3.4 -4.2,-0.9 -6.2,-2.2 -6.2,-5.1 v -0.1 c 0,-2.8 2.6,-4.8 6.1,-4.8 2.7,0 4.6,0.7 6.5,2.2 l -1.2,1.5 c -1.7,-1.3 -3.4,-1.9 -5.3,-1.9 -2.4,0 -3.9,1.3 -3.9,2.9 v 0.1 c 0,1.7 0.9,2.6 5,3.4 4.1,0.9 6,2.3 6,5 v 0.1 c 0,3 -2.6,5 -6.3,5 -2.9,0 -5.3,-0.9 -7.6,-2.8 z"
         inkscape:connector-curvature="0"
         style="fill:#cccccc" />
      <path
         id="path10621"
         d="m 588.57948,-101.61544 h 2.3 v 2.2 h -2.3 z m 0.2,5 h 2 v 13.1 h -2 z"
         inkscape:connector-curvature="0"
         style="fill:#cccccc" />
      <path
         id="path10623"
         d="m 594.37948,-85.11544 1,-1.4 c 1.5,1.1 3.1,1.7 4.7,1.7 1.6,0 2.8,-0.8 2.8,-2.1 v -0.1 c 0,-1.3 -1.6,-1.8 -3.4,-2.3 -2.1,-0.6 -4.5,-1.3 -4.5,-3.7 v -0.1 c 0,-2.3 1.9,-3.7 4.6,-3.7 1.7,0 3.5,0.6 4.9,1.4 l -0.9,1.5 c -1.3,-0.8 -2.7,-1.3 -4,-1.3 -1.6,0 -2.6,0.8 -2.6,1.9 v 0.1 c 0,1.2 1.7,1.7 3.5,2.3 2.1,0.6 4.4,1.4 4.4,3.7 v 0.1 c 0,2.5 -2.1,3.9 -4.8,3.9 -2,0 -4.2,-0.7 -5.7,-1.9 z"
         inkscape:connector-curvature="0"
         style="fill:#cccccc" />
      <path
         id="path10625"
         d="m 609.07948,-86.91544 v -7.9 h -1.9 v -1.7 h 1.9 v -4 h 2 v 4 h 4.3 v 1.7 h -4.3 v 7.6 c 0,1.6 0.9,2.2 2.3,2.2 0.7,0 1.3,-0.1 2,-0.5 v 1.7 c -0.7,0.4 -1.5,0.6 -2.4,0.6 -2.3,0 -3.9,-1.1 -3.9,-3.7 z"
         inkscape:connector-curvature="0"
         style="fill:#cccccc" />
      <path
         id="path10627"
         d="m 617.77948,-90.01544 v 0 c 0,-3.8 2.8,-6.9 6.5,-6.9 4,0 6.3,3.1 6.3,6.9 0,0.3 0,0.4 0,0.6 h -10.8 c 0.3,2.8 2.4,4.4 4.8,4.4 1.9,0 3.2,-0.7 4.3,-1.9 l 1.3,1.1 c -1.4,1.5 -3,2.5 -5.6,2.5 -3.8,0.1 -6.8,-2.6 -6.8,-6.7 z m 10.8,-0.7 c -0.2,-2.4 -1.6,-4.5 -4.3,-4.5 -2.4,0 -4.2,1.9 -4.4,4.5 z"
         inkscape:connector-curvature="0"
         style="fill:#cccccc" />
      <path
         id="path10629"
         d="m 634.17948,-96.61544 h 2 v 2.2 c 0.9,-1.3 2.1,-2.5 4.4,-2.5 2.2,0 3.6,1.1 4.4,2.6 1,-1.4 2.4,-2.6 4.8,-2.6 3.1,0 5.1,2 5.1,5.3 v 8.1 h -2 v -7.6 c 0,-2.5 -1.3,-4 -3.5,-4 -2.1,0 -3.7,1.5 -3.7,4.1 v 7.5 h -2 v -7.7 c 0,-2.5 -1.3,-3.9 -3.5,-3.9 -2.2,0 -3.8,1.7 -3.8,4.1 v 7.5 h -2 z"
         inkscape:connector-curvature="0"
         style="fill:#cccccc" />
      <path
         id="path10631"
         d="m 658.17948,-87.31544 v 0 c 0,-2.8 2.4,-4.3 5.8,-4.3 1.7,0 3,0.2 4.2,0.6 v -0.5 c 0,-2.4 -1.5,-3.6 -4.1,-3.6 -1.6,0 -2.9,0.4 -4.1,1 l -0.6,-1.6 c 1.5,-0.7 3,-1.1 5,-1.1 1.9,0 3.4,0.5 4.4,1.4 0.9,0.9 1.4,2.2 1.4,3.8 v 8 h -1.9 v -2 c -0.9,1.2 -2.5,2.3 -4.9,2.3 -2.6,0.1 -5.2,-1.3 -5.2,-4 z m 10.1,-1 v -1.3 c -1,-0.3 -2.3,-0.6 -4,-0.6 -2.6,0 -4,1.1 -4,2.7 v 0.1 c 0,1.6 1.6,2.6 3.4,2.6 2.5,0.1 4.6,-1.4 4.6,-3.5 z"
         inkscape:connector-curvature="0"
         style="fill:#cccccc" />
      <path
         id="path10633"
         d="m 681.57948,-90.01544 v 0 c 0,-4.3 3.2,-6.9 6.5,-6.9 2.5,0 4.2,1.3 5.2,2.8 v -7.9 h 2 v 18.5 h -2 v -2.6 c -1.1,1.6 -2.7,2.9 -5.2,2.9 -3.2,0 -6.5,-2.5 -6.5,-6.8 z m 11.8,0 v 0 c 0,-3.1 -2.4,-5.1 -4.9,-5.1 -2.6,0 -4.8,1.9 -4.8,5 v 0.1 c 0,3.1 2.2,5.1 4.8,5.1 2.5,-0.1 4.9,-2.1 4.9,-5.1 z"
         inkscape:connector-curvature="0"
         style="fill:#cccccc" />
      <path
         id="path10635"
         d="m 699.07948,-90.01544 v 0 c 0,-3.8 2.8,-6.9 6.5,-6.9 4,0 6.3,3.1 6.3,6.9 0,0.3 0,0.4 0,0.6 h -10.8 c 0.3,2.8 2.4,4.4 4.8,4.4 1.9,0 3.2,-0.7 4.3,-1.9 l 1.3,1.1 c -1.4,1.5 -3,2.5 -5.6,2.5 -3.8,0.1 -6.8,-2.6 -6.8,-6.7 z m 10.8,-0.8 c -0.2,-2.4 -1.6,-4.5 -4.3,-4.5 -2.4,0 -4.2,1.9 -4.4,4.5 z"
         inkscape:connector-curvature="0"
         style="fill:#cccccc" />
      <path
         id="path10637"
         d="m 722.87948,-92.31544 v 0 c 0,-4.9 3.7,-9.2 9.2,-9.2 3.1,0 5,0.9 6.9,2.4 l -1.3,1.5 c -1.4,-1.2 -3,-2 -5.6,-2 -4.1,0 -7,3.3 -7,7.3 v 0.1 c 0,4.2 2.8,7.4 7.3,7.4 2.1,0 4.1,-0.8 5.3,-1.8 v -4.4 h -5.6 v -1.8 h 7.6 v 7.1 c -1.7,1.5 -4.3,2.7 -7.4,2.7 -5.8,-0.2 -9.4,-4.2 -9.4,-9.3 z"
         inkscape:connector-curvature="0"
         style="fill:#cccccc" />
      <path
         id="path10639"
         d="m 743.17948,-90.01544 v 0 c 0,-3.8 2.8,-6.9 6.5,-6.9 4,0 6.3,3.1 6.3,6.9 0,0.3 0,0.4 0,0.6 h -10.8 c 0.3,2.8 2.4,4.4 4.8,4.4 1.9,0 3.2,-0.7 4.3,-1.9 l 1.3,1.1 c -1.4,1.5 -3,2.5 -5.6,2.5 -3.7,0.1 -6.8,-2.7 -6.8,-6.7 z m 10.8,-0.8 c -0.2,-2.4 -1.6,-4.5 -4.3,-4.5 -2.4,0 -4.2,1.9 -4.4,4.5 z"
         inkscape:connector-curvature="0"
         style="fill:#cccccc" />
      <path
         id="path10641"
         d="m 758.47948,-85.21544 1,-1.4 c 1.5,1.1 3.1,1.7 4.7,1.7 1.6,0 2.8,-0.8 2.8,-2.1 v -0.1 c 0,-1.3 -1.6,-1.8 -3.4,-2.3 -2.1,-0.6 -4.5,-1.3 -4.5,-3.7 v -0.1 c 0,-2.3 1.9,-3.7 4.6,-3.8 1.7,0 3.5,0.6 4.9,1.4 l -0.9,1.5 c -1.3,-0.8 -2.7,-1.3 -4,-1.3 -1.6,0 -2.6,0.8 -2.6,1.9 v 0.1 c 0,1.2 1.7,1.7 3.5,2.3 2.1,0.6 4.4,1.4 4.4,3.7 v 0.1 c 0,2.5 -2.1,3.9 -4.8,3.9 -2,0.2 -4.2,-0.6 -5.7,-1.8 z"
         inkscape:connector-curvature="0"
         style="fill:#cccccc" />
      <path
         id="path10643"
         d="m 773.17948,-87.01544 v -7.9 h -1.9 v -1.7 h 1.9 v -4 h 2 v 4 h 4.3 v 1.7 h -4.3 v 7.6 c 0,1.6 0.9,2.2 2.3,2.2 0.7,0 1.3,-0.1 2,-0.5 v 1.7 c -0.7,0.4 -1.5,0.6 -2.4,0.6 -2.2,0 -3.9,-1 -3.9,-3.7 z"
         inkscape:connector-curvature="0"
         style="fill:#cccccc" />
      <path
         id="path10645"
         d="m 783.17948,-101.61544 h 2.3 v 2.2 h -2.3 z m 0.1,5 h 2 v 13.1 h -2 z"
         inkscape:connector-curvature="0"
         style="fill:#cccccc" />
      <path
         id="path10647"
         d="m 789.17948,-90.01544 v 0 c 0,-3.7 3,-6.9 7.1,-6.9 4.1,0 7.1,3.1 7.1,6.8 v 0.1 c 0,3.7 -3,6.8 -7.1,6.8 -4.1,0 -7.1,-3.1 -7.1,-6.8 z m 12.1,0 v 0 c 0,-2.9 -2.2,-5.2 -5.1,-5.2 -2.9,0 -5,2.3 -5,5.1 v 0.1 c 0,2.8 2.2,5.1 5,5.1 3.1,-0.1 5.1,-2.3 5.1,-5.1 z m -3.3,-12.3 2.1,0.9 -3,2.7 h -1.6 z"
         inkscape:connector-curvature="0"
         style="fill:#cccccc" />
      <path
         id="path10649"
         d="m 807.07948,-96.61544 h 2 v 2.3 c 0.9,-1.4 2.3,-2.6 4.7,-2.6 3.3,0 5.2,2.1 5.2,5.2 v 8.1 h -2 v -7.6 c 0,-2.4 -1.4,-4 -3.8,-4 -2.3,0 -4.1,1.6 -4.1,4.1 v 7.5 h -2 z"
         inkscape:connector-curvature="0"
         style="fill:#cccccc" />
      <path
         id="path10651"
         d="m 827.4918,-90.185006 v 0 c 0,-4.3 3.2,-6.9 6.5,-6.9 2.5,0 4.2,1.3 5.2,2.8 v -7.900004 h 2 v 18.500004 h -2 v -2.6 c -1.1,1.6 -2.7,2.9 -5.2,2.9 -3.2,0 -6.5,-2.5 -6.5,-6.8 z m 11.8,-0.1 v 0 c 0,-3.1 -2.4,-5.1 -4.9,-5.1 -2.6,0 -4.8,1.9 -4.8,5 v 0.1 c 0,3.1 2.2,5.1 4.8,5.1 2.5,0 4.9,-2 4.9,-5.1 z"
         inkscape:connector-curvature="0"
         style="fill:#cccccc" />
      <path
         id="path10653"
         d="m 844.9918,-90.185006 v 0 c 0,-3.8 2.8,-6.9 6.5,-6.9 4,0 6.3,3.1 6.3,6.9 0,0.3 0,0.4 0,0.6 h -10.8 c 0.3,2.8 2.4,4.4 4.8,4.4 1.9,0 3.2,-0.7 4.3,-1.9 l 1.3,1.1 c -1.4,1.5 -3,2.5 -5.6,2.5 -3.8,0.1 -6.8,-2.7 -6.8,-6.7 z m 10.8,-0.8 c -0.2,-2.4 -1.6,-4.5 -4.3,-4.5 -2.4,0 -4.2,1.9 -4.4,4.5 z"
         inkscape:connector-curvature="0"
         style="fill:#cccccc" />
      <path
         id="path10655"
         d="m 869.4918,-102.18501 h 2 v 18.500004 h -2 z"
         inkscape:connector-curvature="0"
         style="fill:#cccccc" />
      <path
         id="path10657"
         d="m 875.1918,-87.485006 v 0 c 0,-2.8 2.4,-4.3 5.8,-4.3 1.7,0 3,0.2 4.2,0.6 v -0.5 c 0,-2.4 -1.5,-3.6 -4.1,-3.6 -1.6,0 -2.9,0.4 -4.1,1 l -0.6,-1.6 c 1.5,-0.7 3,-1.1 5,-1.1 1.9,0 3.4,0.5 4.4,1.4 0.9,0.9 1.4,2.2 1.4,3.8 v 8 h -1.9 v -2 c -0.9,1.2 -2.5,2.3 -4.9,2.3 -2.6,0 -5.2,-1.3 -5.2,-4 z m 10,-1.1 v -1.3 c -1,-0.3 -2.3,-0.6 -4,-0.6 -2.6,0 -4,1.1 -4,2.7 v 0.1 c 0,1.6 1.6,2.6 3.4,2.6 2.6,0.1 4.6,-1.4 4.6,-3.5 z"
         inkscape:connector-curvature="0"
         style="fill:#cccccc" />
      <path
         id="path10659"
         d="m 531.69517,-63.896395 v 0 c 0,-5.1 3.9,-9.2 9.3,-9.2 3.3,0 5.3,1.1 7.2,2.8 l -1.4,1.5 c -1.6,-1.4 -3.3,-2.4 -5.8,-2.4 -4.1,0 -7.1,3.2 -7.1,7.3 v 0.1 c 0,4.1 3.1,7.3 7.1,7.3 2.5,0 4.2,-0.9 6,-2.6 l 1.4,1.3 c -1.9,1.9 -4,3.1 -7.4,3.1 -5.4,0 -9.3,-4.1 -9.3,-9.2 z"
         inkscape:connector-curvature="0"
         style="fill:#cccccc" />
      <path
         id="path10661"
         d="m 550.59517,-58.796395 v 0 c 0,-2.8 2.4,-4.3 5.8,-4.3 1.7,0 3,0.2 4.2,0.6 v -0.5 c 0,-2.4 -1.5,-3.6 -4.1,-3.6 -1.6,0 -2.9,0.4 -4.1,1 l -0.6,-1.6 c 1.5,-0.7 3,-1.1 5,-1.1 1.9,0 3.4,0.5 4.4,1.4 0.9,0.9 1.4,2.2 1.4,3.8 v 8 h -1.9 v -2 c -0.9,1.2 -2.5,2.3 -4.9,2.3 -2.6,0 -5.2,-1.4 -5.2,-4 z m 10,-1.1 v -1.3 c -1,-0.3 -2.3,-0.6 -4,-0.6 -2.6,0 -4,1.1 -4,2.7 v 0.1 c 0,1.6 1.6,2.6 3.4,2.6 2.6,0.1 4.6,-1.4 4.6,-3.5 z"
         inkscape:connector-curvature="0"
         style="fill:#cccccc" />
      <path
         id="path10663"
         d="m 567.09517,-73.496395 h 2 v 18.5 h -2 z"
         inkscape:connector-curvature="0"
         style="fill:#cccccc" />
      <path
         id="path10665"
         d="m 573.89517,-73.196395 h 2.3 v 2.2 h -2.3 z m 0.1,5.1 h 2 v 13.1 h -2 z"
         inkscape:connector-curvature="0"
         style="fill:#cccccc" />
      <path
         id="path10667"
         d="m 579.99517,-61.596395 v 0 c 0,-4.3 3.2,-6.9 6.5,-6.9 2.5,0 4.2,1.3 5.2,2.8 v -7.9 h 2 v 18.5 h -2 v -2.6 c -1.1,1.6 -2.7,2.9 -5.2,2.9 -3.3,0 -6.5,-2.5 -6.5,-6.8 z m 11.8,0 v 0 c 0,-3.1 -2.4,-5.1 -4.9,-5.1 -2.6,0 -4.8,1.9 -4.8,5 v 0.1 c 0,3.1 2.2,5.1 4.8,5.1 2.5,0 4.9,-2.1 4.9,-5.1 z"
         inkscape:connector-curvature="0"
         style="fill:#cccccc" />
      <path
         id="path10669"
         d="m 597.19517,-58.896395 v 0 c 0,-2.8 2.4,-4.3 5.8,-4.3 1.7,0 3,0.2 4.2,0.6 v -0.5 c 0,-2.4 -1.5,-3.6 -4.1,-3.6 -1.6,0 -2.9,0.4 -4.1,1 l -0.6,-1.6 c 1.5,-0.7 3,-1.1 5,-1.1 1.9,0 3.4,0.5 4.4,1.4 0.9,0.9 1.4,2.2 1.4,3.8 v 8 h -1.9 v -2 c -0.9,1.2 -2.5,2.3 -4.9,2.3 -2.6,0.1 -5.2,-1.3 -5.2,-4 z m 10,-1 v -1.3 c -1,-0.3 -2.3,-0.6 -4,-0.6 -2.6,0 -4,1.1 -4,2.7 v 0.1 c 0,1.6 1.6,2.6 3.4,2.6 2.6,0.1 4.6,-1.4 4.6,-3.5 z"
         inkscape:connector-curvature="0"
         style="fill:#cccccc" />
      <path
         id="path10671"
         d="m 612.69517,-61.596395 v 0 c 0,-4.3 3.2,-6.9 6.5,-6.9 2.5,0 4.2,1.3 5.2,2.8 v -7.9 h 2 v 18.5 h -2 v -2.6 c -1.1,1.6 -2.7,2.9 -5.2,2.9 -3.3,0 -6.5,-2.5 -6.5,-6.8 z m 11.8,0 v 0 c 0,-3.1 -2.4,-5.1 -4.9,-5.1 -2.6,0 -4.8,1.9 -4.8,5 v 0.1 c 0,3.1 2.2,5.1 4.8,5.1 2.5,0 4.9,-2.1 4.9,-5.1 z"
         inkscape:connector-curvature="0"
         style="fill:#cccccc" />
      <path
         id="path10673"
         d="m 638.09517,-61.596395 v 0 c 0,-4.3 3.2,-6.9 6.5,-6.9 2.5,0 4.2,1.3 5.2,2.8 v -7.9 h 2 v 18.5 h -2 v -2.6 c -1.1,1.6 -2.7,2.9 -5.2,2.9 -3.3,0 -6.5,-2.5 -6.5,-6.8 z m 11.8,0 v 0 c 0,-3.1 -2.4,-5.1 -4.9,-5.1 -2.6,0 -4.8,1.9 -4.8,5 v 0.1 c 0,3.1 2.2,5.1 4.8,5.1 2.5,0 4.9,-2.1 4.9,-5.1 z"
         inkscape:connector-curvature="0"
         style="fill:#cccccc" />
      <path
         id="path10675"
         d="m 655.49517,-61.596395 v 0 c 0,-3.8 2.8,-6.9 6.5,-6.9 4,0 6.3,3.1 6.3,6.9 0,0.3 0,0.4 0,0.6 h -10.8 c 0.3,2.8 2.4,4.4 4.8,4.4 1.9,0 3.2,-0.7 4.3,-1.9 l 1.3,1.1 c -1.4,1.5 -3,2.5 -5.6,2.5 -3.7,0.1 -6.8,-2.6 -6.8,-6.7 z m 10.9,-0.7 c -0.2,-2.4 -1.6,-4.5 -4.3,-4.5 -2.4,0 -4.2,1.9 -4.4,4.5 z"
         inkscape:connector-curvature="0"
         style="fill:#cccccc" />
      <path
         id="path10677"
         d="m 672.19517,-73.596395 h 2 v 18.5 h -2 z"
         inkscape:connector-curvature="0"
         style="fill:#cccccc" />
      <path
         id="path10679"
         d="m 682.0309,-57.596006 1.3,-1.5 c 1.9,1.7 3.8,2.5 6.3,2.5 2.5,0 4.1,-1.3 4.1,-3 v -0.1 c 0,-1.6 -0.9,-2.6 -4.8,-3.4 -4.2,-0.9 -6.2,-2.2 -6.2,-5.1 v -0.1 c 0,-2.8 2.6,-4.8 6.1,-4.8 2.7,0 4.6,0.7 6.5,2.2 l -1.2,1.5 c -1.7,-1.3 -3.4,-1.9 -5.3,-1.9 -2.4,0 -3.9,1.3 -3.9,2.9 v 0.1 c 0,1.7 0.9,2.6 5,3.4 4.1,0.9 6,2.3 6,5 v 0.1 c 0,3 -2.6,5 -6.3,5 -3,0.1 -5.4,-0.9 -7.6,-2.8 z"
         inkscape:connector-curvature="0"
         style="fill:#cccccc" />
      <path
         id="path10681"
         d="m 698.8309,-61.496006 v 0 c 0,-3.8 2.8,-6.9 6.5,-6.9 4,0 6.3,3.1 6.3,6.9 0,0.3 0,0.4 0,0.6 h -10.8 c 0.3,2.8 2.4,4.4 4.8,4.4 1.9,0 3.2,-0.7 4.3,-1.9 l 1.3,1.1 c -1.4,1.5 -3,2.5 -5.6,2.5 -3.7,0.1 -6.8,-2.7 -6.8,-6.7 z m 10.9,-0.8 c -0.2,-2.4 -1.6,-4.5 -4.3,-4.5 -2.4,0 -4.2,1.9 -4.4,4.5 z"
         inkscape:connector-curvature="0"
         style="fill:#cccccc" />
      <path
         id="path10683"
         d="m 715.3309,-68.096006 h 2 v 3.4 c 1,-2.2 3,-3.8 5.6,-3.6 v 2.1 h -0.2 c -3,0 -5.4,2.1 -5.4,6 v 5.2 h -2 z"
         inkscape:connector-curvature="0"
         style="fill:#cccccc" />
      <path
         id="path10685"
         d="m 724.6309,-68.096006 h 2.2 l 4.6,10.9 4.6,-10.9 h 2.2 l -5.9,13.2 h -1.8 z"
         inkscape:connector-curvature="0"
         style="fill:#cccccc" />
      <path
         id="path10687"
         d="m 741.5309,-73.096006 h 2.3 v 2.2 h -2.3 z m 0.1,5 h 2 v 13.1 h -2 z"
         inkscape:connector-curvature="0"
         style="fill:#cccccc" />
      <path
         id="path10689"
         d="m 747.5309,-61.496006 v 0 c 0,-3.7 3,-6.9 7,-6.9 2.6,0 4.2,1 5.5,2.3 l -1.3,1.4 c -1.1,-1.1 -2.3,-2 -4.1,-2 -2.8,0 -4.9,2.3 -4.9,5.1 v 0.1 c 0,2.8 2.2,5.1 5,5.1 1.7,0 3.1,-0.8 4.2,-2 l 1.3,1.2 c -1.4,1.5 -3,2.5 -5.6,2.5 -4.1,0 -7.1,-3.1 -7.1,-6.8 z"
         inkscape:connector-curvature="0"
         style="fill:#cccccc" />
      <path
         id="path10691"
         d="m 763.4309,-73.096006 h 2.3 v 2.2 h -2.3 z m 0.2,5 h 2 v 13.1 h -2 z"
         inkscape:connector-curvature="0"
         style="fill:#cccccc" />
      <path
         id="path10693"
         d="m 769.5309,-61.496006 v 0 c 0,-3.7 3,-6.9 7.1,-6.9 4.1,0 7.1,3.1 7.1,6.8 v 0.1 c 0,3.7 -3,6.8 -7.1,6.8 -4.2,0 -7.1,-3.1 -7.1,-6.8 z m 12.1,0 v 0 c 0,-2.9 -2.2,-5.2 -5.1,-5.2 -2.9,0 -5,2.3 -5,5.1 v 0.1 c 0,2.8 2.2,5.1 5,5.1 3,-0.1 5.1,-2.3 5.1,-5.1 z"
         inkscape:connector-curvature="0"
         style="fill:#cccccc" />
      <path
         id="path10695"
         d="m 795.6309,-72.796006 h 13.3 v 1.8 h -11.2 v 6.1 h 10.1 v 1.8 h -10.1 v 6.2 h 11.4 v 1.8 h -13.5 z"
         inkscape:connector-curvature="0"
         style="fill:#cccccc" />
      <path
         id="path10697"
         d="m 811.8309,-61.496006 v 0 c 0,-4.3 3.2,-6.9 6.5,-6.9 2.5,0 4.2,1.3 5.2,2.8 v -7.9 h 2 v 18.5 h -2 v -2.6 c -1.1,1.6 -2.7,2.9 -5.2,2.9 -3.2,0 -6.5,-2.5 -6.5,-6.8 z m 11.8,-0.1 v 0 c 0,-3.1 -2.4,-5.1 -4.9,-5.1 -2.6,0 -4.8,1.9 -4.8,5 v 0.1 c 0,3.1 2.2,5.1 4.8,5.1 2.5,0 4.9,-2 4.9,-5.1 z"
         inkscape:connector-curvature="0"
         style="fill:#cccccc" />
      <path
         id="path10699"
         d="m 829.9309,-59.996006 v -8.1 h 2 v 7.6 c 0,2.4 1.4,4 3.8,4 2.3,0 4.1,-1.6 4.1,-4.1 v -7.5 h 2 v 13.1 h -2 v -2.3 c -0.9,1.4 -2.3,2.6 -4.7,2.6 -3.3,0 -5.2,-2.2 -5.2,-5.3 z"
         inkscape:connector-curvature="0"
         style="fill:#cccccc" />
      <path
         id="path10701"
         d="m 845.5309,-61.496006 v 0 c 0,-3.7 3,-6.9 7,-6.9 2.6,0 4.2,1 5.5,2.3 l -1.3,1.4 c -1.1,-1.1 -2.3,-2 -4.1,-2 -2.8,0 -4.9,2.3 -4.9,5.1 v 0.1 c 0,2.8 2.2,5.1 5,5.1 1.7,0 3.1,-0.8 4.2,-2 l 1.3,1.2 c -1.4,1.5 -3,2.5 -5.6,2.5 -4.1,0 -7.1,-3.1 -7.1,-6.8 z"
         inkscape:connector-curvature="0"
         style="fill:#cccccc" />
      <path
         id="path10703"
         d="m 860.4309,-58.796006 v 0 c 0,-2.8 2.4,-4.3 5.8,-4.3 1.7,0 3,0.2 4.2,0.6 v -0.5 c 0,-2.4 -1.5,-3.6 -4.1,-3.6 -1.6,0 -2.9,0.4 -4.1,1 l -0.6,-1.6 c 1.5,-0.7 3,-1.1 5,-1.1 1.9,0 3.4,0.5 4.4,1.4 0.9,0.9 1.4,2.2 1.4,3.8 v 8 h -1.9 v -2 c -0.9,1.2 -2.5,2.3 -4.9,2.3 -2.7,0 -5.2,-1.3 -5.2,-4 z m 10,-1.1 v -1.3 c -1,-0.3 -2.3,-0.6 -4,-0.6 -2.6,0 -4,1.1 -4,2.7 v 0.1 c 0,1.6 1.6,2.6 3.4,2.6 2.5,0.1 4.6,-1.4 4.6,-3.5 z"
         inkscape:connector-curvature="0"
         style="fill:#cccccc" />
      <path
         id="path10705"
         d="m 877.2309,-58.496006 v -7.9 h -1.9 v -1.7 h 1.9 v -4 h 2 v 4 h 4.3 v 1.7 h -4.3 v 7.6 c 0,1.6 0.9,2.2 2.3,2.2 0.7,0 1.3,-0.1 2,-0.5 v 1.7 c -0.7,0.4 -1.5,0.6 -2.4,0.6 -2.2,0 -3.9,-1.1 -3.9,-3.7 z"
         inkscape:connector-curvature="0"
         style="fill:#cccccc" />
      <path
         id="path10707"
         d="m 887.2309,-73.196006 h 2.3 v 2.2 h -2.3 z m 0.1,5.1 h 2 v 13.1 h -2 z"
         inkscape:connector-curvature="0"
         style="fill:#cccccc" />
      <path
         id="path10709"
         d="m 892.7309,-68.096006 h 2.2 l 4.6,10.9 4.6,-10.9 h 2.2 l -5.9,13.2 h -1.8 z"
         inkscape:connector-curvature="0"
         style="fill:#cccccc" />
      <path
         id="path10711"
         d="m 907.9309,-61.496006 v 0 c 0,-3.7 3,-6.9 7.1,-6.9 4.1,0 7.1,3.1 7.1,6.8 v 0.1 c 0,3.7 -3,6.8 -7.1,6.8 -4.1,0 -7.1,-3.1 -7.1,-6.8 z m 12.1,0 v 0 c 0,-2.9 -2.2,-5.2 -5.1,-5.2 -2.9,0 -5,2.3 -5,5.1 v 0.1 c 0,2.8 2.2,5.1 5,5.1 3.1,-0.1 5.1,-2.4 5.1,-5.1 z"
         inkscape:connector-curvature="0"
         style="fill:#cccccc" />
    </g>
  </g>
  <g
     id="g11232">
    <g
       id="g11212">
      <g
         transform="matrix(0.36914108,0,0,0.38636917,186.58662,88.565827)"
         id="g5086"
         style="fill:#e6e6e6">
        <g
           transform="matrix(0.93123828,0,0,0.83780346,24.418588,8.4933746)"
           id="g4986"
           style="fill:#e6e6e6">
          <path
             style="fill:#e6e6e6"
             inkscape:connector-curvature="0"
             id="path4976"
             d="M 14.2,74.3 24,63.8 c 6.7,5 13.8,8.2 22.4,8.2 6.7,0 10.8,-2.4 10.8,-6.4 V 65.4 C 57.2,61.6 54.6,59.7 42.1,56.8 27,53.3 17.2,49.5 17.2,36 v -0.2 c 0,-12.3 10.9,-20.5 26.2,-20.5 10.9,0 20.2,3.1 27.9,8.6 L 62.7,35.2 C 56.1,31 49.5,28.5 43.2,28.5 c -6.3,0 -9.6,2.6 -9.6,5.9 v 0.2 c 0,4.5 3.2,5.9 16.2,8.9 15.2,3.7 23.8,8.6 23.8,20.5 v 0.2 C 73.6,77.7 62.2,85.3 46.1,85.3 34.7,85.2 23.2,81.6 14.2,74.3 Z" />
          <path
             style="fill:#e6e6e6"
             inkscape:connector-curvature="0"
             id="path4978"
             d="m 88.7,16.3 h 16.5 V 84.2 H 88.7 Z" />
          <path
             style="fill:#e6e6e6"
             inkscape:connector-curvature="0"
             id="path4980"
             d="m 123.9,16.3 h 17.8 L 161.4,45 181.1,16.3 h 17.8 V 84.2 H 182.5 V 39.9 l -21.1,29 H 161 L 140.1,40.2 v 44.1 h -16.2 z" />
          <path
             style="fill:#e6e6e6"
             inkscape:connector-curvature="0"
             id="path4982"
             d="m 213.6,50.5 v -0.2 c 0,-19.3 16.8,-35.1 40,-35.1 23.2,0 39.7,15.6 39.7,34.9 v 0.2 c 0,19.3 -16.8,35.1 -40,35.1 -23.2,0 -39.7,-15.6 -39.7,-34.9 z m 62.5,0 v -0.2 c 0,-11.6 -9.4,-21.3 -22.7,-21.3 -13.3,0 -22.5,9.5 -22.5,21.2 v 0.2 c 0,11.6 9.4,21.3 22.7,21.3 13.3,0 22.5,-9.6 22.5,-21.2 z" />
          <path
             style="fill:#e6e6e6"
             inkscape:connector-curvature="0"
             id="path4984"
             d="m 308,16.3 h 15.2 l 35.1,41.8 V 16.3 h 16.3 v 67.9 h -14 L 324.3,41 V 84.2 H 308 Z" />
        </g>
      </g>
    </g>
  </g>
</svg>
